<svg width="56" height="55" viewBox="0 0 56 55" fill="none" xmlns="http://www.w3.org/2000/svg">
<path d="M24.9004 19.6943C23.9895 19.6903 23.0798 19.7605 22.1804 19.9043C21.3189 20.0484 20.5131 20.4253 19.8504 20.9943C19.0322 21.7501 18.3992 22.6843 18.0004 23.7243C17.372 25.3491 16.9651 27.051 16.7904 28.7843C16.4886 30.4735 16.4146 32.1955 16.5704 33.9043C16.6484 34.9033 17.0208 35.8568 17.6404 36.6443C18.1613 37.2257 18.8685 37.6076 19.6404 37.7243C20.5207 37.8576 21.4101 37.9212 22.3004 37.9143H23.0004C23.2404 37.9143 23.5204 37.9143 23.8304 37.9143L26.3804 19.7743C26.1239 19.7594 25.8668 19.7594 25.6104 19.7743L24.9004 19.6943ZM38.1604 20.9943C37.6359 20.4138 36.9315 20.0264 36.1604 19.8943C35.2813 19.7488 34.3914 19.6786 33.5004 19.6843H32.7004C32.4673 19.6688 32.2335 19.6688 32.0004 19.6843L29.4504 37.8743C29.6835 37.8898 29.9173 37.8898 30.1504 37.8743H30.8904C31.8005 37.8796 32.7098 37.8161 33.6104 37.6843C34.4886 37.5678 35.3166 37.2075 36.0004 36.6443C36.8154 35.8839 37.4449 34.9464 37.8404 33.9043C38.476 32.258 38.8994 30.5375 39.1004 28.7843C39.3701 27.1115 39.4272 25.4114 39.2704 23.7243C39.1748 22.7255 38.7889 21.7764 38.1604 20.9943ZM53.1604 16.5243C46.4796 10.8648 39.3792 5.72005 31.9204 1.13429V1.13429C30.718 0.392717 29.3331 0 27.9204 0C26.5077 0 25.1228 0.392717 23.9204 1.13429C16.4647 5.72368 9.36766 10.8718 2.69039 16.5343V16.5343C1.61011 17.4508 0.806715 18.6503 0.370403 19.9981C-0.06591 21.3459 -0.117859 22.7886 0.220388 24.1643V24.1643C2.28036 32.6688 4.98827 41.0031 8.32039 49.0943V49.0943C8.85623 50.4048 9.74613 51.5403 10.8905 52.3739C12.0349 53.2075 13.3887 53.7062 14.8004 53.8143V53.8143C23.5279 54.4743 32.2928 54.4743 41.0204 53.8143C42.4328 53.7046 43.7872 53.2055 44.9329 52.3722C46.0787 51.5389 46.9709 50.4042 47.5104 49.0943C50.8381 41.0015 53.5459 32.6675 55.6104 24.1643V24.1643C55.944 22.7876 55.8887 21.3453 55.4509 19.9981C55.013 18.6509 54.2097 17.4518 53.1304 16.5343L53.1604 16.5243ZM44.7404 28.7843C44.4575 31.2655 43.821 33.6934 42.8504 35.9943C42.1638 37.5918 41.1083 39.0037 39.7704 40.1143C38.5487 41.0682 37.1147 41.7132 35.5904 41.9943C33.8716 42.3068 32.1273 42.4575 30.3804 42.4443C30.1304 42.4443 29.8604 42.4443 29.5704 42.4443C29.3173 42.46 29.0635 42.46 28.8104 42.4443L28.4304 44.8643H22.8204L23.2004 42.4443H21.6304C19.9264 42.462 18.2248 42.3113 16.5504 41.9943C15.1743 41.7493 13.9031 41.0981 12.9004 40.1243C11.8648 38.9709 11.2024 37.5312 11.0004 35.9943C10.6643 33.6027 10.7047 31.1733 11.1204 28.7943C11.4069 26.3159 12.0467 23.8913 13.0204 21.5943C13.7021 19.9967 14.7545 18.5844 16.0904 17.4743C17.3168 16.5238 18.7539 15.8824 20.2804 15.6043C21.9958 15.2917 23.7368 15.1411 25.4804 15.1543H26.2704C26.5335 15.1391 26.7973 15.1391 27.0604 15.1543L27.4004 12.6843H33.0004L32.6604 15.1543C32.9168 15.1394 33.1739 15.1394 33.4304 15.1543H34.2304C35.9344 15.1365 37.636 15.2873 39.3104 15.6043C40.6883 15.8439 41.961 16.496 42.9604 17.4743C44.0087 18.6199 44.6851 20.0564 44.9004 21.5943C45.2214 23.9847 45.1675 26.4105 44.7404 28.7843V28.7843Z" fill="#2886FF"/>
</svg>
